{"title":"MaffiabrÃƒÂ¶der aka Goodfellas.1990.DvDRip.XViD.Swe_Sub.avi","uid":5482822,"size":1466746994,"categoryP":"video","categoryS":"movies","magnet":"?xt=urn:btih:aa11d961cf13d2fe6c8d32db889a9ebf07700481&amp;dn=Maffiabr%C3%83%C2%B6der+aka+Goodfellas.1990.DvDRip.XViD.Swe_Sub.avi&amp;tr=udp%3A%2F%2Ftracker.openbittorrent.com%3A80&amp;tr=udp%3A%2F%2Fopen.demonii.com%3A1337&amp;tr=udp%3A%2F%2Ftracker.coppersurfer.tk%3A6969&amp;tr=udp%3A%2F%2Fexodus.desync.com%3A6969","seeders":2,"leechers":0,"uploader":"Zen_Bud","files":-1,"time":1270542056,"description":"General\nComplete name                    : MaffiabrÃƒÂ¶der aka Goodfellas.avi\nFormat                           : AVI\nFile size                        : 1.37 GiB\nDuration                         : 2h 19mn\nOverall bit rate                 : 1 411 Kbps\n\nVideo\nID                               : 0\nFormat                           : MPEG-4 Visual\nCodec ID                         : XVID\nDuration                         : 2h 19mn\nBit rate                         : 1 270 Kbps\nWidth                            : 716 pixels\nHeight                           : 576 pixels\nDisplay aspect ratio             : 16:9\nFrame rate                       : 25.000 fps\nResolution                       : 8 bits\nColorimetry                      : 4:2:0\nScan type                        : Progressive\nBits/(Pixel*Frame)               : 0.123\nStream size                      : 1.24 GiB (90%)\nWriting library                  : XviD 1.1.2 (UTC 2006-11-01)\n\nAudio\nID                               : 1\nFormat                           : MPEG Audio\nFormat profile                   : Layer 3\nMode                             : Joint stereo\nCodec ID/Hint                    : MP3\nDuration                         : 2h 19mn\nBit rate mode                    : Constant\nBit rate                         : 128 Kbps\nChannel(s)                       : 2 channels\nSampling rate                    : 48.0 KHz\nStream size                      : 128 MiB (9%)\n\nWriting library                  : LAME3.98\n\n","torrent":{"xt":"urn:btih:aa11d961cf13d2fe6c8d32db889a9ebf07700481","amp;dn":"Maffiabr%C3%83%C2%B6der+aka+Goodfellas.1990.DvDRip.XViD.Swe_Sub.avi","amp;tr":["udp%3A%2F%2Ftracker.openbittorrent.com%3A80","udp%3A%2F%2Fopen.demonii.com%3A1337","udp%3A%2F%2Ftracker.coppersurfer.tk%3A6969","udp%3A%2F%2Fexodus.desync.com%3A6969"],"infoHash":"aa11d961cf13d2fe6c8d32db889a9ebf07700481","infoHashBuffer":{"type":"Buffer","data":[170,17,217,97,207,19,210,254,108,141,50,219,136,154,158,191,7,112,4,129]},"announce":[],"urlList":[]}}